# xmcd CD database file
#
# Track frame offsets:
#	150
#	23446
#	43750
#	66204
#	85684
#	108855
#	127095
#	141226
#	163988
#	185423
#	200829
#
# Disc length: 2999 seconds
#
# Revision: 1
# Processed by: cddbd v1.5.2PL0 Copyright (c) Steve Scherf et al.
# Submitted via: CDex 1.51
#
DISCID=9b0bb50b
DTITLE=Takashi Matsunaga - Love Makes The Earth Float
DYEAR=2008
DGENRE=Jazz
TTITLE0=Sands Of Time
TTITLE1=Mud Crab Party
TTITLE2=Kobe
TTITLE3=A Cruel Angel's Thesis (from "Neon Genesis EVANGELION")
TTITLE4=Love Makes The Earth Float
TTITLE5=Street Performer
TTITLE6=Seaside Walk
TTITLE7=Powel Circle
TTITLE8=La Seule Gloire
TTITLE9=Water Balloon
TTITLE10=Traveler In The Wind
EXTD=YEAR: 2008
EXTT0=
EXTT1=
EXTT2=
EXTT3=
EXTT4=
EXTT5=
EXTT6=
EXTT7=
EXTT8=
EXTT9=
EXTT10=
PLAYORDER=
